<?xml version="1.0" ?><!DOCTYPE svg  PUBLIC '-//W3C//DTD SVG 1.1//EN'  'http://www.w3.org/Graphics/SVG/1.1/DTD/svg11.dtd'><svg enable-background="new 0 0 24 24" height="24px" id="Layer_1" version="1.1" viewBox="0 0 24 24" width="24px" xml:space="preserve" xmlns="http://www.w3.org/2000/svg" xmlns:xlink="http://www.w3.org/1999/xlink"><g><path d="M23,0H1C0.4,0,0,0.4,0,1v22c0,0.6,0.4,1,1,1h22c0.6,0,1-0.4,1-1V1C24,0.4,23.6,0,23,0z M22,22H2V2h20V22z"/><path d="M12,14c1.1,0,2-0.9,2-2s-0.9-2-2-2s-2,0.9-2,2S10.9,14,12,14z M12,11c0.6,0,1,0.4,1,1s-0.4,1-1,1s-1-0.4-1-1S11.4,11,12,11   z"/></g></svg>